# xmcd
#
# Track frame offsets: 
#        150
#        17430
#        42150
#        66892
#
# Disc length: 1221 seconds
#
# Revision: 0
# Processed by: cddbd v1.5.2PL0 Copyright (c) Steve Scherf et al.
# Submitted via: ExactAudioCopy v1.0b3
#
DISCID=2804c304
DTITLE=Cream Shut - Just Remember
DYEAR=1900
DGENRE=
TTITLE0=Just Remember (Airplay Edit)
TTITLE1=Just Remember (Clubmix)
TTITLE2=Just Remember (Instrumental)
TTITLE3=Just Remember (Dub Edit)
EXTD=
EXTT0=
EXTT1=
EXTT2=
EXTT3=
PLAYORDER=
